<svg xmlns="http://www.w3.org/2000/svg" viewBox="0 0 90.712 19.505">
  <path d="M13.838 5.666h-2.315a.286.286 0 00-.245.137l-1.471 2.62-.133.236-.031.056L5.666 15.8c-.3.518-.654.763-1.307.763-.845 0-1.362-.49-1.362-1.39V5.886c0-.11-.11-.219-.218-.219H.19c-.082 0-.191.11-.191.219V15.2c0 1.518.636 2.743 1.697 3.48.709.494 1.608.77 2.634.77 1.744 0 2.86-.736 3.596-2.098l3.133-5.475v7.245c0 .11.109.164.218.164h2.56c.11 0 .218-.054.218-.164V5.858c0-.11-.109-.192-.218-.192z" />
  <path d="M24.735 5.503c-1.662 0-3.16.654-4.005 1.58V1.5c0-.11-.081-.19-.19-.19h-2.616c-.081 0-.19.08-.19.19v17.598c0 .108.109.19.19.19h2.616c.109 0 .19-.082.19-.19v-1.2c.872.818 2.234 1.553 4.005 1.553 4.086 0 6.837-2.723 6.837-6.973s-2.751-6.974-6.837-6.974zm-.164 11.06c-2.343 0-3.868-1.743-3.868-4.086 0-2.37 1.525-4.06 3.868-4.06 2.397 0 3.95 1.69 3.95 4.06 0 2.343-1.553 4.086-3.95 4.086z" />
  <path d="M37.13 5.666H34.54c-.109 0-.218.11-.218.219v13.238c0 .11.11.164.218.164h2.588c.11 0 .19-.054.19-.164V5.885c0-.11-.08-.219-.19-.219zM35.875 0c-1.171-.027-2.097.845-2.097 2.016 0 1.172.898 2.043 2.07 2.043 1.117 0 2.043-.871 2.043-2.015C37.892.873 36.993 0 35.876 0z" />
  <path d="M43.776 1.309h-2.588c-.082 0-.19.08-.19.19v17.624c0 .11.108.164.19.164h2.588c.109 0 .218-.054.218-.164V1.5c0-.11-.11-.19-.218-.19z" />
  <path d="M60.393 5.666h-2.588a.215.215 0 00-.218.219v1.253c-.545-.763-2.125-1.635-3.923-1.635-3.922 0-6.919 2.888-6.919 6.974s2.997 6.973 6.92 6.973c1.824 0 3.377-.871 3.922-1.607v1.254c0 .108.082.19.218.19h2.588c.109 0 .19-.082.19-.19V5.885c0-.11-.081-.219-.19-.219zm-6.62 10.897c-2.26 0-3.977-1.852-3.977-4.086 0-2.261 1.716-4.06 3.977-4.06 2.234 0 3.868 1.799 3.868 4.06 0 2.234-1.634 4.086-3.868 4.086z" />
  <path d="M71.262 5.503c-1.69 0-3.133.654-4.005 1.58V1.5c0-.11-.081-.19-.19-.19h-2.643c-.081 0-.163.08-.163.19v17.598c0 .108.082.19.163.19h2.643c.109 0 .19-.082.19-.19v-1.2a5.866 5.866 0 004.005 1.553c4.059 0 6.837-2.723 6.837-6.973s-2.778-6.974-6.837-6.974zm-.136 11.06c-2.398 0-3.896-1.743-3.896-4.086 0-2.37 1.498-4.06 3.896-4.06 2.397 0 3.922 1.69 3.922 4.06 0 2.343-1.525 4.086-3.922 4.086z" />
  <path d="M86.653 11.306c-2.452-.545-3.324-.736-3.324-1.69 0-.952.709-1.389 2.18-1.389 1.362 0 2.833.6 3.432.981.082.055.218.027.272-.082l1.09-1.961c.055-.11.055-.218-.054-.3-1.172-.817-2.942-1.362-4.822-1.362-3.378 0-5.121 1.717-5.121 4.114 0 2.206 1.253 3.432 4.168 4.004 2.397.463 3.214.79 3.214 1.744 0 .926-.708 1.416-2.343 1.416-1.334 0-2.942-.518-4.059-1.253a.177.177 0 00-.245.054l-1.171 2.07c-.055.11-.055.246.027.3 1.635 1.063 3.65 1.553 5.612 1.553 3.323 0 5.203-1.716 5.203-4.25 0-2.124-1.199-3.323-4.06-3.95z" />
</svg>
