<?xml version="1.0" standalone="no"?>
<svg version="1.1" xmlns="http://www.w3.org/2000/svg" viewBox="0 0 400 118.02" preserveAspectRatio="xMidYMid meet">
  <g>
    <path fill="#000" d="M228.146,70.119c0.883-2.22,1.324-4.593,1.324-7.122c0-2.338-0.345-4.558-1.037-6.659 c-0.692-2.098-1.707-3.914-3.044-5.44c-1.336-1.526-2.946-2.744-4.83-3.65c-1.887-0.906-4.044-1.361-6.479-1.361 c-2.29,0-4.249,0.359-5.87,1.075c-1.623,0.715-2.721,1.359-3.293,1.933V32.43h-8.448v47.746c6.75,1.146,10.687,1.146,13.587,1.146 c2.911,0,5.979-0.489,8.318-1.467c2.339-0.979,4.332-2.294,5.979-3.938C226,74.271,227.263,72.338,228.146,70.119z M220.201,67.257 c-0.454,1.312-1.134,2.468-2.039,3.471c-0.909,1.003-2.006,1.803-3.293,2.398c-1.29,0.595-2.791,0.895-4.511,0.895 c-1.526,0-2.647-0.06-3.365-0.18c-0.716-0.12-1.406-0.298-2.075-0.538V60.634c0-2.29,0.656-4.091,1.97-5.405 c1.311-1.312,3.257-1.968,5.832-1.968c1.434,0,2.662,0.274,3.687,0.823c1.027,0.549,1.874,1.29,2.543,2.219 c0.667,0.931,1.155,1.993,1.467,3.186c0.311,1.194,0.465,2.434,0.465,3.725C220.881,64.596,220.655,65.944,220.201,67.257z"></path>
    <path fill="#000" d="M325.36,75.918c1.646-1.646,2.909-3.58,3.794-5.799c0.882-2.22,1.323-4.593,1.323-7.122 c0-2.338-0.347-4.558-1.037-6.659c-0.692-2.098-1.707-3.914-3.043-5.44c-1.337-1.526-2.947-2.744-4.832-3.65 c-1.886-0.906-4.045-1.361-6.479-1.361c-2.289,0-4.247,0.359-5.868,1.075c-1.624,0.715-2.722,1.359-3.294,1.933V32.43h-8.447 v47.746c6.749,1.146,10.685,1.146,13.585,1.146c2.912,0,5.981-0.489,8.32-1.467C321.722,78.876,323.714,77.562,325.36,75.918z M315.874,73.126c-1.288,0.595-2.791,0.895-4.509,0.895c-1.528,0-2.647-0.06-3.365-0.18c-0.715-0.12-1.407-0.298-2.075-0.538 V60.634c0-2.29,0.655-4.091,1.97-5.405c1.312-1.312,3.257-1.968,5.833-1.968c1.433,0,2.661,0.274,3.686,0.823 c1.027,0.549,1.874,1.29,2.542,2.219c0.669,0.931,1.156,1.993,1.469,3.186c0.31,1.194,0.464,2.434,0.464,3.725 c0,1.383-0.226,2.731-0.681,4.044c-0.454,1.312-1.132,2.468-2.04,3.471C318.26,71.73,317.162,72.53,315.874,73.126z"></path>
    <path fill="#000" d="M190.531,62.566V32.43h-9.021v28.563c0,1.813-0.178,3.448-0.537,4.902 c-0.358,1.456-0.941,2.696-1.754,3.722c-0.811,1.027-1.885,1.815-3.221,2.362c-1.336,0.551-2.983,0.823-4.938,0.823 c-1.958,0-3.605-0.272-4.941-0.823c-1.336-0.547-2.409-1.335-3.219-2.362c-0.812-1.025-1.397-2.266-1.756-3.722 c-0.357-1.454-0.536-3.089-0.536-4.902V32.43h-9.019v30.136c0,2.675,0.429,5.155,1.288,7.445c0.859,2.291,2.122,4.283,3.793,5.977 c1.67,1.694,3.709,3.031,6.12,4.009s5.166,1.469,8.27,1.469c3.1,0,5.856-0.491,8.267-1.469c2.409-0.978,4.45-2.314,6.12-4.009 c1.67-1.693,2.937-3.686,3.793-5.977C190.101,67.722,190.531,65.241,190.531,62.566z"></path>
    <rect x="234.053" y="46.603" fill="#000" width="8.446" height="33.573"></rect>
    <rect x="234.053" y="32.43" fill="#000" width="8.446" height="8.446"></rect>
    <rect x="248.439" y="32.43" fill="#000" width="8.447" height="47.746"></rect>
    <path fill="#000" d="M287.674,48.859c-1.241-1.074-2.733-1.908-4.475-2.506c-1.742-0.597-3.687-0.895-5.835-0.895 c-2.003,0-3.758,0.133-5.263,0.393c-1.501,0.264-2.824,0.597-3.971,1.002c-1.146,0.407-2.148,0.859-3.008,1.36 c-0.859,0.5-1.623,0.992-2.289,1.469l3.864,5.725c1.099-0.716,2.363-1.383,3.795-2.003s3.34-0.931,5.727-0.931 c2.147,0,3.889,0.477,5.227,1.431c1.335,0.954,2.002,2.267,2.002,3.937v0.787c-0.906-0.046-1.788-0.093-2.647-0.144 c-0.764-0.046-1.552-0.083-2.362-0.105c-0.812-0.023-1.552-0.036-2.219-0.036c-2.197,0-4.2,0.262-6.014,0.788 c-1.815,0.525-3.363,1.3-4.652,2.326c-1.29,1.027-2.291,2.292-3.006,3.795c-0.718,1.503-1.074,3.209-1.074,5.117 c0,1.861,0.346,3.484,1.038,4.867c0.692,1.385,1.598,2.519,2.721,3.399c1.119,0.886,2.36,1.54,3.722,1.969 c1.359,0.431,2.729,0.646,4.116,0.646c2.291,0,4.367-0.43,6.228-1.287c1.861-0.861,3.244-1.839,4.15-2.938l0.217,3.151h7.872 V57.626c0-1.765-0.332-3.399-1.001-4.902S288.913,49.932,287.674,48.859z M283.448,68.294c0,0.858-0.227,1.67-0.678,2.434 c-0.454,0.764-1.039,1.432-1.756,2.003c-0.714,0.572-1.537,1.028-2.469,1.36c-0.931,0.335-1.896,0.502-2.899,0.502 c-2.004,0-3.52-0.403-4.545-1.216c-1.028-0.811-1.539-1.934-1.539-3.365c0-1.385,0.549-2.613,1.646-3.688 c1.098-1.072,3.008-1.61,5.727-1.61c0.525,0,1.155,0.013,1.896,0.036c0.741,0.024,1.444,0.061,2.113,0.107 c0.811,0.048,1.646,0.097,2.504,0.144V68.294z"></path>
    <path fill="#000" d="M360.439,75.129c0.764-1.311,1.146-2.778,1.146-4.401c0-1.621-0.264-3.017-0.787-4.188 c-0.525-1.169-1.276-2.183-2.256-3.041c-0.978-0.859-2.147-1.576-3.507-2.148c-1.361-0.572-2.898-1.049-4.618-1.431 c-2.766-0.669-4.807-1.3-6.12-1.897c-1.312-0.596-1.969-1.419-1.969-2.47c0-0.859,0.395-1.585,1.182-2.183 c0.787-0.597,2.185-0.895,4.188-0.895c2.006,0,3.747,0.274,5.227,0.823c1.479,0.549,2.671,1.157,3.578,1.826l4.368-5.94 c-1.672-1.243-3.545-2.172-5.621-2.792c-2.075-0.621-4.592-0.931-7.552-0.931c-1.67,0-3.328,0.239-4.975,0.716 s-3.125,1.157-4.438,2.04c-1.314,0.884-2.375,1.981-3.186,3.293c-0.812,1.312-1.216,2.805-1.216,4.475 c0,1.622,0.346,3.019,1.036,4.188c0.692,1.167,1.575,2.171,2.649,3.005c1.072,0.836,2.229,1.492,3.471,1.97 c1.241,0.477,2.434,0.857,3.58,1.144c1.861,0.431,3.34,0.836,4.438,1.218c1.098,0.383,1.956,0.765,2.577,1.145 c0.62,0.384,1.025,0.776,1.216,1.183c0.192,0.405,0.287,0.848,0.287,1.323c0,1.1-0.549,1.887-1.646,2.362 c-1.098,0.479-2.553,0.717-4.366,0.717c-2.053,0-3.877-0.346-5.476-1.04c-1.6-0.69-2.923-1.562-3.973-2.611l-5.085,5.512 c1.528,1.719,3.557,3.019,6.086,3.901c2.531,0.882,5.37,1.325,8.518,1.325c1.957,0,3.807-0.251,5.55-0.753 c1.739-0.501,3.268-1.204,4.58-2.111C358.639,77.551,359.675,76.441,360.439,75.129z"></path>
    <path fill="#000" d="M59.009-0.094C26.419-0.094,0,26.326,0,58.915c0,32.589,26.418,59.009,59.008,59.009 c32.589,0,59.007-26.42,59.007-59.009C118.016,26.326,91.598-0.094,59.009-0.094z M39.662,75.682 c-9.246,0-16.766-7.521-16.766-16.767s7.521-16.768,16.766-16.768c9.246,0,16.767,7.522,16.767,16.768S48.908,75.682,39.662,75.682 z M69.327,75.633h-6.45V42.098h6.45V75.633z M82.224,75.633h-6.447V42.098h6.447V75.633z M95.123,75.633h-6.45V42.098h6.45V75.633z"></path>
    <path fill="#000" d="M39.662,48.508c-5.739,0-10.406,4.668-10.406,10.407c0,5.737,4.667,10.404,10.406,10.404 c5.738,0,10.407-4.667,10.407-10.404C50.069,53.176,45.399,48.508,39.662,48.508z"></path>
  </g>
</svg>
